<svg xmlns="http://www.w3.org/2000/svg" version="1.1" xmlns:xlink="http://www.w3.org/1999/xlink" xmlns:svgjs="http://svgjs.dev/svgjs" width="1000" height="1000" viewBox="0 0 1000 1000"><rect width="1000" height="1000" fill="#000000"></rect><g transform="matrix(0.7,0,0,0.7,149.57575757575756,443.9130324705322)"><svg viewBox="0 0 396 64" data-background-color="#ffffff" preserveAspectRatio="xMidYMid meet" height="161" width="1000" xmlns="http://www.w3.org/2000/svg" xmlns:xlink="http://www.w3.org/1999/xlink"><g id="tight-bounds" transform="matrix(1,0,0,1,0.2400000000000091,-0.14937070198811853)"><svg viewBox="0 0 395.52 64.29874140397627" height="64.29874140397627" width="395.52"><g><svg viewBox="0 0 522.3816057423023 84.92232954545455" height="64.29874140397627" width="395.52"><g><rect width="5.541521937954545" height="73.73863636363635" x="106.81348187252965" y="5.5918465909091" fill="#ffffff" opacity="1" stroke-width="0" stroke="transparent" fill-opacity="1" class="rect-o-0" data-fill-palette-color="primary" rx="1%" id="o-0" data-palette-color="#0063db"></rect></g><g transform="matrix(1,0,0,1,126.86160574230237,11.73673295454546)"><svg viewBox="0 0 395.52 61.448863636363626" height="61.448863636363626" width="395.52"><g><svg viewBox="0 0 395.52 61.448863636363626" height="61.448863636363626" width="395.52"><g><svg viewBox="0 0 395.52 61.448863636363626" height="61.448863636363626" width="395.52"><g transform="matrix(1,0,0,1,0,0)"><svg width="395.52" viewBox="0.75 -43.349998474121094 281.57000732421875 43.75" height="61.448863636363626" data-palette-color="#0063db"><path d="M9.1 0L0.75 0 4.9-42.95 19.45-42.95 23.55 0 15.4 0 14.8-6.95 9.6-6.95 9.1 0ZM11.85-35.65L10.25-13.8 14.15-13.8 12.25-35.65 11.85-35.65ZM47.84 0.4Q43.15 0.4 40.32-2.55 37.49-5.5 37.49-10.65L37.49-10.65 37.49-30.45Q37.49-36.85 40.05-40.1 42.59-43.35 48.05-43.35L48.05-43.35Q52.8-43.35 55.7-40.75 58.59-38.15 58.59-33.25L58.59-33.25 58.59-25.85 50.05-25.85 50.05-32.2Q50.05-34.05 49.59-34.75 49.15-35.45 48.05-35.45L48.05-35.45Q46.9-35.45 46.47-34.65 46.05-33.85 46.05-32.3L46.05-32.3 46.05-10.75Q46.05-9.05 46.55-8.28 47.05-7.5 48.05-7.5L48.05-7.5Q50.05-7.5 50.05-10.75L50.05-10.75 50.05-18.5 58.7-18.5 58.7-10.4Q58.7 0.4 47.84 0.4L47.84 0.4ZM68.74 0L60.39 0 64.54-42.95 79.09-42.95 83.19 0 75.04 0 74.44-6.95 69.24-6.95 68.74 0ZM71.49-35.65L69.89-13.8 73.79-13.8 71.89-35.65 71.49-35.65ZM95.99 0.4Q90.14 0.4 87.54-2.5 84.94-5.4 84.94-11.85L84.94-11.85 84.94-16.05 93.39-16.05 93.39-10.7Q93.39-7.5 95.44-7.5L95.44-7.5Q96.59-7.5 97.04-8.18 97.49-8.85 97.49-10.45L97.49-10.45Q97.49-12.55 96.99-13.93 96.49-15.3 95.72-16.23 94.94-17.15 92.94-19.1L92.94-19.1 89.24-22.8Q84.94-27 84.94-32.1L84.94-32.1Q84.94-37.6 87.47-40.48 89.99-43.35 94.84-43.35L94.84-43.35Q100.64-43.35 103.19-40.28 105.74-37.2 105.74-30.65L105.74-30.65 96.99-30.65 96.94-33.6Q96.94-34.45 96.47-34.95 95.99-35.45 95.14-35.45L95.14-35.45Q94.14-35.45 93.64-34.9 93.14-34.35 93.14-33.4L93.14-33.4Q93.14-31.3 95.54-29.05L95.54-29.05 100.54-24.25Q102.29-22.55 103.44-21.03 104.59-19.5 105.29-17.43 105.99-15.35 105.99-12.5L105.99-12.5Q105.99-6.15 103.67-2.88 101.34 0.4 95.99 0.4L95.99 0.4ZM116.04 0L107.69 0 111.84-42.95 126.39-42.95 130.49 0 122.34 0 121.74-6.95 116.54-6.95 116.04 0ZM118.79-35.65L117.19-13.8 121.09-13.8 119.19-35.65 118.79-35.65ZM153.18 0L144.78 0 144.78-42.95 153.63-42.95 157.58-22.4 157.58-42.95 165.88-42.95 165.88 0 157.48 0 153.18-21.5 153.18 0ZM179.93 0.4Q174.73 0.4 172.03-2.78 169.33-5.95 169.33-11.7L169.33-11.7 169.33-32.15Q169.33-37.7 172.03-40.53 174.73-43.35 179.93-43.35L179.93-43.35Q185.13-43.35 187.83-40.53 190.53-37.7 190.53-32.15L190.53-32.15 190.53-11.7Q190.53-5.9 187.83-2.75 185.13 0.4 179.93 0.4L179.93 0.4ZM179.93-7.5Q181.08-7.5 181.48-8.5 181.88-9.5 181.88-11.3L181.88-11.3 181.88-32.3Q181.88-33.7 181.5-34.58 181.13-35.45 179.98-35.45L179.98-35.45Q177.83-35.45 177.83-32.2L177.83-32.2 177.83-11.25Q177.83-9.4 178.28-8.45 178.73-7.5 179.93-7.5L179.93-7.5ZM204.18 0.4Q198.33 0.4 195.73-2.5 193.13-5.4 193.13-11.85L193.13-11.85 193.13-16.05 201.58-16.05 201.58-10.7Q201.58-7.5 203.63-7.5L203.63-7.5Q204.78-7.5 205.23-8.18 205.68-8.85 205.68-10.45L205.68-10.45Q205.68-12.55 205.18-13.93 204.68-15.3 203.9-16.23 203.13-17.15 201.13-19.1L201.13-19.1 197.43-22.8Q193.13-27 193.13-32.1L193.13-32.1Q193.13-37.6 195.65-40.48 198.18-43.35 203.03-43.35L203.03-43.35Q208.83-43.35 211.38-40.28 213.93-37.2 213.93-30.65L213.93-30.65 205.18-30.65 205.13-33.6Q205.13-34.45 204.65-34.95 204.18-35.45 203.33-35.45L203.33-35.45Q202.33-35.45 201.83-34.9 201.33-34.35 201.33-33.4L201.33-33.4Q201.33-31.3 203.73-29.05L203.73-29.05 208.73-24.25Q210.48-22.55 211.63-21.03 212.78-19.5 213.48-17.43 214.18-15.35 214.18-12.5L214.18-12.5Q214.18-6.15 211.85-2.88 209.53 0.4 204.18 0.4L204.18 0.4ZM229.33 0L220.73 0 220.73-34.7 215.63-34.7 215.63-42.95 234.43-42.95 234.43-34.7 229.33-34.7 229.33 0ZM236.82 0L236.82-42.95 250.02-42.95Q253.17-42.95 254.9-41.53 256.62-40.1 257.22-37.52 257.82-34.95 257.82-30.95L257.82-30.95Q257.82-27.3 256.87-25.25 255.92-23.2 253.57-22.4L253.57-22.4Q255.52-22 256.4-20.45 257.27-18.9 257.27-16.25L257.27-16.25 257.17 0 248.77 0 248.77-16.8Q248.77-18.6 248.07-19.1 247.37-19.6 245.52-19.6L245.52-19.6 245.52 0 236.82 0ZM245.57-27.05L247.62-27.05Q249.42-27.05 249.42-30.95L249.42-30.95Q249.42-32.65 249.27-33.5 249.12-34.35 248.72-34.68 248.32-35 247.57-35L247.57-35 245.57-35 245.57-27.05ZM267.87 0L259.52 0 263.67-42.95 278.22-42.95 282.32 0 274.17 0 273.57-6.95 268.37-6.95 267.87 0ZM270.62-35.65L269.02-13.8 272.92-13.8 271.02-35.65 270.62-35.65Z" opacity="1" transform="matrix(1,0,0,1,0,0)" fill="#ffffff" class="undefined-text-0" data-fill-palette-color="primary" id="text-0"></path></svg></g></svg></g></svg></g></svg></g><g><svg viewBox="0 0 92.30687994071147 84.92232954545455" height="84.92232954545455" width="92.30687994071147"><g><svg xmlns="http://www.w3.org/2000/svg" xmlns:xlink="http://www.w3.org/1999/xlink" version="1.1" x="0" y="0" viewBox="0 4 100 92" enable-background="new 0 0 100 100" xml:space="preserve" height="84.92232954545455" width="92.30687994071147" class="icon-icon-0" data-fill-palette-color="accent" id="icon-0"><polygon points="97,30 3,30 5,32.358 5,38.019 95,38.019 95,32.358 " fill="#ffffff" data-fill-palette-color="accent"></polygon><rect x="1" y="4" width="98" height="5" fill="#ffffff" data-fill-palette-color="accent"></rect><path d="M95 59V40h-0.5c0 0 0 2.421-1.5 1.632 0 0-0.939 2.368-2 2.368h2l-0.5 2h-4L88 44h2c-1.061 0-2-2.368-2-2.368C86.5 42.421 86.5 40 86.5 40h-14c0 0 0 2.421-1.5 1.632 0 0-0.939 2.368-2 2.368h2l-0.5 2h-4L66 44h2c-1.061 0-2-2.368-2-2.368C64.5 42.421 64.5 40 64.5 40h-29c0 0 0 2.421-1.5 1.632 0 0-0.939 2.368-2 2.368h2l-0.5 2h-4L29 44h2c-1.061 0-2-2.368-2-2.368C27.5 42.421 27.5 40 27.5 40H13.543c0 0-0.021 2.421-1.521 1.632 0 0-0.961 2.368-2.021 2.368h2l-0.5 2h-4L7 44h2c-1.061 0-2-2.368-2-2.368C5.5 42.421 5.5 40 5.5 40H5v19H4v3h1v34h9V76.79v-3.211c0-3.332 3.166-6.044 6.5-6.044 3.335 0 6.5 2.712 6.5 6.044v3.211V96h9V62h2v-3h-2c0.16-7 6.613-13.286 14.013-13.286C57.416 45.714 63.843 52 64 59h-2v3h2v34h9V76.79v-3.211c0-3.332 3.164-6.044 6.5-6.044 3.334 0 6.5 2.712 6.5 6.044v3.211V96h9V62h1v-3H95zM7.5 47h4L12 87H7L7.5 47zM13 94H6v-6h7V94zM27 56H14v-9h13V56zM29.5 47h4L34 87h-5L29.5 47zM35 94h-7v-6h7V94zM66.5 47h4L71 87h-5L66.5 47zM72 94h-7v-6h7V94zM86 56H73v-9h13V56zM88.5 47h4L93 87h-5L88.5 47zM94 94h-7v-6h7V94z" fill="#ffffff" data-fill-palette-color="accent"></path><path d="M93.939 26.057V12.959L97 13l1-2H1l2 2h3.262v13.057H0L2 28h34.246l0.535-1.943h26.375L63.689 28H98l2-1.943H93.939zM13.648 22v-9h12.941v9H13.648zM69.066 22h-38v-7h38V22zM73.069 22v-9h13.294v9H73.069z" fill="#ffffff" data-fill-palette-color="accent"></path></svg></g></svg></g></svg></g><defs></defs></svg><rect width="395.52" height="64.29874140397627" fill="none" stroke="none" visibility="hidden"></rect></g></svg></g></svg>